<?xml version="1.0" encoding="utf-8" standalone="no"?>
<!DOCTYPE svg PUBLIC "-//W3C//DTD SVG 1.1//EN"
  "http://www.w3.org/Graphics/SVG/1.1/DTD/svg11.dtd">
<svg xmlns:xlink="http://www.w3.org/1999/xlink" width="864pt" height="432pt" viewBox="0 0 864 432" xmlns="http://www.w3.org/2000/svg" version="1.1">
 <metadata>
  <rdf:RDF xmlns:dc="http://purl.org/dc/elements/1.1/" xmlns:cc="http://creativecommons.org/ns#" xmlns:rdf="http://www.w3.org/1999/02/22-rdf-syntax-ns#">
   <cc:Work>
    <dc:type rdf:resource="http://purl.org/dc/dcmitype/StillImage"/>
    <dc:date>2024-06-24T20:54:10.606543</dc:date>
    <dc:format>image/svg+xml</dc:format>
    <dc:creator>
     <cc:Agent>
      <dc:title>Matplotlib v3.8.0, https://matplotlib.org/</dc:title>
     </cc:Agent>
    </dc:creator>
   </cc:Work>
  </rdf:RDF>
 </metadata>
 <defs>
  <style type="text/css">*{stroke-linejoin: round; stroke-linecap: butt}</style>
 </defs>
 <g id="figure_1">
  <g id="patch_1">
   <path d="M 0 432 
L 864 432 
L 864 0 
L 0 0 
z
" style="fill: #ffffff"/>
  </g>
  <g id="axes_1">
   <g id="patch_2">
    <path d="M 10.8 341.986673 
L 697.614545 341.986673 
L 697.614545 121.309135 
L 10.8 121.309135 
z
" style="fill: #ffffff"/>
   </g>
   <g id="patch_3">
    <path d="M 42.018843 341.986673 
L 94.050248 341.986673 
L 94.050248 179.953099 
L 42.018843 179.953099 
z
" clip-path="url(#pa0bbeeee25)" style="fill: #87ceeb"/>
   </g>
   <g id="patch_4">
    <path d="M 172.097355 341.986673 
L 224.12876 341.986673 
L 224.12876 141.820165 
L 172.097355 141.820165 
z
" clip-path="url(#pa0bbeeee25)" style="fill: #87ceeb"/>
   </g>
   <g id="patch_5">
    <path d="M 302.175868 341.986673 
L 354.207273 341.986673 
L 354.207273 147.82916 
L 302.175868 147.82916 
z
" clip-path="url(#pa0bbeeee25)" style="fill: #87ceeb"/>
   </g>
   <g id="patch_6">
    <path d="M 432.25438 341.986673 
L 484.285785 341.986673 
L 484.285785 181.199546 
L 432.25438 181.199546 
z
" clip-path="url(#pa0bbeeee25)" style="fill: #87ceeb"/>
   </g>
   <g id="patch_7">
    <path d="M 562.332893 341.986673 
L 614.364298 341.986673 
L 614.364298 137.294815 
L 562.332893 137.294815 
z
" clip-path="url(#pa0bbeeee25)" style="fill: #87ceeb"/>
   </g>
   <g id="patch_8">
    <path d="M 94.050248 341.986673 
L 146.081653 341.986673 
L 146.081653 153.131115 
L 94.050248 153.131115 
z
" clip-path="url(#pa0bbeeee25)" style="fill: #ff0000"/>
   </g>
   <g id="patch_9">
    <path d="M 224.12876 341.986673 
L 276.160165 341.986673 
L 276.160165 133.715753 
L 224.12876 133.715753 
z
" clip-path="url(#pa0bbeeee25)" style="fill: #ff0000"/>
   </g>
   <g id="patch_10">
    <path d="M 354.207273 341.986673 
L 406.238678 341.986673 
L 406.238678 138.95319 
L 354.207273 138.95319 
z
" clip-path="url(#pa0bbeeee25)" style="fill: #ff0000"/>
   </g>
   <g id="patch_11">
    <path d="M 484.285785 341.986673 
L 536.31719 341.986673 
L 536.31719 180.670802 
L 484.285785 180.670802 
z
" clip-path="url(#pa0bbeeee25)" style="fill: #ff0000"/>
   </g>
   <g id="patch_12">
    <path d="M 614.364298 341.986673 
L 666.395702 341.986673 
L 666.395702 131.81759 
L 614.364298 131.81759 
z
" clip-path="url(#pa0bbeeee25)" style="fill: #ff0000"/>
   </g>
   <g id="matplotlib.axis_1">
    <g id="xtick_1">
     <g id="line2d_1">
      <defs>
       <path id="m86a9ce174f" d="M 0 0 
L 0 3.5 
" style="stroke: #000000; stroke-width: 0.8"/>
      </defs>
      <g>
       <use xlink:href="#m86a9ce174f" x="94.050248" y="341.986673" style="stroke: #000000; stroke-width: 0.8"/>
      </g>
     </g>
     <g id="text_1">
      <!-- KNN -->
      <g transform="translate(91.657937 366.935757) rotate(-60) scale(0.08 -0.08)">
       <defs>
        <path id="DejaVuSans-4b" d="M 628 4666 
L 1259 4666 
L 1259 2694 
L 3353 4666 
L 4166 4666 
L 1850 2491 
L 4331 0 
L 3500 0 
L 1259 2247 
L 1259 0 
L 628 0 
L 628 4666 
z
" transform="scale(0.015625)"/>
        <path id="DejaVuSans-4e" d="M 628 4666 
L 1478 4666 
L 3547 763 
L 3547 4666 
L 4159 4666 
L 4159 0 
L 3309 0 
L 1241 3903 
L 1241 0 
L 628 0 
L 628 4666 
z
" transform="scale(0.015625)"/>
       </defs>
       <use xlink:href="#DejaVuSans-4b"/>
       <use xlink:href="#DejaVuSans-4e" x="65.576172"/>
       <use xlink:href="#DejaVuSans-4e" x="140.380859"/>
      </g>
     </g>
    </g>
    <g id="xtick_2">
     <g id="line2d_2">
      <g>
       <use xlink:href="#m86a9ce174f" x="224.12876" y="341.986673" style="stroke: #000000; stroke-width: 0.8"/>
      </g>
     </g>
     <g id="text_2">
      <!-- Decision Tree -->
      <g transform="translate(212.725199 398.151643) rotate(-60) scale(0.08 -0.08)">
       <defs>
        <path id="DejaVuSans-44" d="M 1259 4147 
L 1259 519 
L 2022 519 
Q 2988 519 3436 956 
Q 3884 1394 3884 2338 
Q 3884 3275 3436 3711 
Q 2988 4147 2022 4147 
L 1259 4147 
z
M 628 4666 
L 1925 4666 
Q 3281 4666 3915 4102 
Q 4550 3538 4550 2338 
Q 4550 1131 3912 565 
Q 3275 0 1925 0 
L 628 0 
L 628 4666 
z
" transform="scale(0.015625)"/>
        <path id="DejaVuSans-65" d="M 3597 1894 
L 3597 1613 
L 953 1613 
Q 991 1019 1311 708 
Q 1631 397 2203 397 
Q 2534 397 2845 478 
Q 3156 559 3463 722 
L 3463 178 
Q 3153 47 2828 -22 
Q 2503 -91 2169 -91 
Q 1331 -91 842 396 
Q 353 884 353 1716 
Q 353 2575 817 3079 
Q 1281 3584 2069 3584 
Q 2775 3584 3186 3129 
Q 3597 2675 3597 1894 
z
M 3022 2063 
Q 3016 2534 2758 2815 
Q 2500 3097 2075 3097 
Q 1594 3097 1305 2825 
Q 1016 2553 972 2059 
L 3022 2063 
z
" transform="scale(0.015625)"/>
        <path id="DejaVuSans-63" d="M 3122 3366 
L 3122 2828 
Q 2878 2963 2633 3030 
Q 2388 3097 2138 3097 
Q 1578 3097 1268 2742 
Q 959 2388 959 1747 
Q 959 1106 1268 751 
Q 1578 397 2138 397 
Q 2388 397 2633 464 
Q 2878 531 3122 666 
L 3122 134 
Q 2881 22 2623 -34 
Q 2366 -91 2075 -91 
Q 1284 -91 818 406 
Q 353 903 353 1747 
Q 353 2603 823 3093 
Q 1294 3584 2113 3584 
Q 2378 3584 2631 3529 
Q 2884 3475 3122 3366 
z
" transform="scale(0.015625)"/>
        <path id="DejaVuSans-69" d="M 603 3500 
L 1178 3500 
L 1178 0 
L 603 0 
L 603 3500 
z
M 603 4863 
L 1178 4863 
L 1178 4134 
L 603 4134 
L 603 4863 
z
" transform="scale(0.015625)"/>
        <path id="DejaVuSans-73" d="M 2834 3397 
L 2834 2853 
Q 2591 2978 2328 3040 
Q 2066 3103 1784 3103 
Q 1356 3103 1142 2972 
Q 928 2841 928 2578 
Q 928 2378 1081 2264 
Q 1234 2150 1697 2047 
L 1894 2003 
Q 2506 1872 2764 1633 
Q 3022 1394 3022 966 
Q 3022 478 2636 193 
Q 2250 -91 1575 -91 
Q 1294 -91 989 -36 
Q 684 19 347 128 
L 347 722 
Q 666 556 975 473 
Q 1284 391 1588 391 
Q 1994 391 2212 530 
Q 2431 669 2431 922 
Q 2431 1156 2273 1281 
Q 2116 1406 1581 1522 
L 1381 1569 
Q 847 1681 609 1914 
Q 372 2147 372 2553 
Q 372 3047 722 3315 
Q 1072 3584 1716 3584 
Q 2034 3584 2315 3537 
Q 2597 3491 2834 3397 
z
" transform="scale(0.015625)"/>
        <path id="DejaVuSans-6f" d="M 1959 3097 
Q 1497 3097 1228 2736 
Q 959 2375 959 1747 
Q 959 1119 1226 758 
Q 1494 397 1959 397 
Q 2419 397 2687 759 
Q 2956 1122 2956 1747 
Q 2956 2369 2687 2733 
Q 2419 3097 1959 3097 
z
M 1959 3584 
Q 2709 3584 3137 3096 
Q 3566 2609 3566 1747 
Q 3566 888 3137 398 
Q 2709 -91 1959 -91 
Q 1206 -91 779 398 
Q 353 888 353 1747 
Q 353 2609 779 3096 
Q 1206 3584 1959 3584 
z
" transform="scale(0.015625)"/>
        <path id="DejaVuSans-6e" d="M 3513 2113 
L 3513 0 
L 2938 0 
L 2938 2094 
Q 2938 2591 2744 2837 
Q 2550 3084 2163 3084 
Q 1697 3084 1428 2787 
Q 1159 2491 1159 1978 
L 1159 0 
L 581 0 
L 581 3500 
L 1159 3500 
L 1159 2956 
Q 1366 3272 1645 3428 
Q 1925 3584 2291 3584 
Q 2894 3584 3203 3211 
Q 3513 2838 3513 2113 
z
" transform="scale(0.015625)"/>
        <path id="DejaVuSans-20" transform="scale(0.015625)"/>
        <path id="DejaVuSans-54" d="M -19 4666 
L 3928 4666 
L 3928 4134 
L 2272 4134 
L 2272 0 
L 1638 0 
L 1638 4134 
L -19 4134 
L -19 4666 
z
" transform="scale(0.015625)"/>
        <path id="DejaVuSans-72" d="M 2631 2963 
Q 2534 3019 2420 3045 
Q 2306 3072 2169 3072 
Q 1681 3072 1420 2755 
Q 1159 2438 1159 1844 
L 1159 0 
L 581 0 
L 581 3500 
L 1159 3500 
L 1159 2956 
Q 1341 3275 1631 3429 
Q 1922 3584 2338 3584 
Q 2397 3584 2469 3576 
Q 2541 3569 2628 3553 
L 2631 2963 
z
" transform="scale(0.015625)"/>
       </defs>
       <use xlink:href="#DejaVuSans-44"/>
       <use xlink:href="#DejaVuSans-65" x="77.001953"/>
       <use xlink:href="#DejaVuSans-63" x="138.525391"/>
       <use xlink:href="#DejaVuSans-69" x="193.505859"/>
       <use xlink:href="#DejaVuSans-73" x="221.289062"/>
       <use xlink:href="#DejaVuSans-69" x="273.388672"/>
       <use xlink:href="#DejaVuSans-6f" x="301.171875"/>
       <use xlink:href="#DejaVuSans-6e" x="362.353516"/>
       <use xlink:href="#DejaVuSans-20" x="425.732422"/>
       <use xlink:href="#DejaVuSans-54" x="457.519531"/>
       <use xlink:href="#DejaVuSans-72" x="503.853516"/>
       <use xlink:href="#DejaVuSans-65" x="542.716797"/>
       <use xlink:href="#DejaVuSans-65" x="604.240234"/>
      </g>
     </g>
    </g>
    <g id="xtick_3">
     <g id="line2d_3">
      <g>
       <use xlink:href="#m86a9ce174f" x="354.207273" y="341.986673" style="stroke: #000000; stroke-width: 0.8"/>
      </g>
     </g>
     <g id="text_3">
      <!-- Rede Neural (MLP) -->
      <g transform="translate(337.612774 416.133578) rotate(-60) scale(0.08 -0.08)">
       <defs>
        <path id="DejaVuSans-52" d="M 2841 2188 
Q 3044 2119 3236 1894 
Q 3428 1669 3622 1275 
L 4263 0 
L 3584 0 
L 2988 1197 
Q 2756 1666 2539 1819 
Q 2322 1972 1947 1972 
L 1259 1972 
L 1259 0 
L 628 0 
L 628 4666 
L 2053 4666 
Q 2853 4666 3247 4331 
Q 3641 3997 3641 3322 
Q 3641 2881 3436 2590 
Q 3231 2300 2841 2188 
z
M 1259 4147 
L 1259 2491 
L 2053 2491 
Q 2509 2491 2742 2702 
Q 2975 2913 2975 3322 
Q 2975 3731 2742 3939 
Q 2509 4147 2053 4147 
L 1259 4147 
z
" transform="scale(0.015625)"/>
        <path id="DejaVuSans-64" d="M 2906 2969 
L 2906 4863 
L 3481 4863 
L 3481 0 
L 2906 0 
L 2906 525 
Q 2725 213 2448 61 
Q 2172 -91 1784 -91 
Q 1150 -91 751 415 
Q 353 922 353 1747 
Q 353 2572 751 3078 
Q 1150 3584 1784 3584 
Q 2172 3584 2448 3432 
Q 2725 3281 2906 2969 
z
M 947 1747 
Q 947 1113 1208 752 
Q 1469 391 1925 391 
Q 2381 391 2643 752 
Q 2906 1113 2906 1747 
Q 2906 2381 2643 2742 
Q 2381 3103 1925 3103 
Q 1469 3103 1208 2742 
Q 947 2381 947 1747 
z
" transform="scale(0.015625)"/>
        <path id="DejaVuSans-75" d="M 544 1381 
L 544 3500 
L 1119 3500 
L 1119 1403 
Q 1119 906 1312 657 
Q 1506 409 1894 409 
Q 2359 409 2629 706 
Q 2900 1003 2900 1516 
L 2900 3500 
L 3475 3500 
L 3475 0 
L 2900 0 
L 2900 538 
Q 2691 219 2414 64 
Q 2138 -91 1772 -91 
Q 1169 -91 856 284 
Q 544 659 544 1381 
z
M 1991 3584 
L 1991 3584 
z
" transform="scale(0.015625)"/>
        <path id="DejaVuSans-61" d="M 2194 1759 
Q 1497 1759 1228 1600 
Q 959 1441 959 1056 
Q 959 750 1161 570 
Q 1363 391 1709 391 
Q 2188 391 2477 730 
Q 2766 1069 2766 1631 
L 2766 1759 
L 2194 1759 
z
M 3341 1997 
L 3341 0 
L 2766 0 
L 2766 531 
Q 2569 213 2275 61 
Q 1981 -91 1556 -91 
Q 1019 -91 701 211 
Q 384 513 384 1019 
Q 384 1609 779 1909 
Q 1175 2209 1959 2209 
L 2766 2209 
L 2766 2266 
Q 2766 2663 2505 2880 
Q 2244 3097 1772 3097 
Q 1472 3097 1187 3025 
Q 903 2953 641 2809 
L 641 3341 
Q 956 3463 1253 3523 
Q 1550 3584 1831 3584 
Q 2591 3584 2966 3190 
Q 3341 2797 3341 1997 
z
" transform="scale(0.015625)"/>
        <path id="DejaVuSans-6c" d="M 603 4863 
L 1178 4863 
L 1178 0 
L 603 0 
L 603 4863 
z
" transform="scale(0.015625)"/>
        <path id="DejaVuSans-28" d="M 1984 4856 
Q 1566 4138 1362 3434 
Q 1159 2731 1159 2009 
Q 1159 1288 1364 580 
Q 1569 -128 1984 -844 
L 1484 -844 
Q 1016 -109 783 600 
Q 550 1309 550 2009 
Q 550 2706 781 3412 
Q 1013 4119 1484 4856 
L 1984 4856 
z
" transform="scale(0.015625)"/>
        <path id="DejaVuSans-4d" d="M 628 4666 
L 1569 4666 
L 2759 1491 
L 3956 4666 
L 4897 4666 
L 4897 0 
L 4281 0 
L 4281 4097 
L 3078 897 
L 2444 897 
L 1241 4097 
L 1241 0 
L 628 0 
L 628 4666 
z
" transform="scale(0.015625)"/>
        <path id="DejaVuSans-4c" d="M 628 4666 
L 1259 4666 
L 1259 531 
L 3531 531 
L 3531 0 
L 628 0 
L 628 4666 
z
" transform="scale(0.015625)"/>
        <path id="DejaVuSans-50" d="M 1259 4147 
L 1259 2394 
L 2053 2394 
Q 2494 2394 2734 2622 
Q 2975 2850 2975 3272 
Q 2975 3691 2734 3919 
Q 2494 4147 2053 4147 
L 1259 4147 
z
M 628 4666 
L 2053 4666 
Q 2838 4666 3239 4311 
Q 3641 3956 3641 3272 
Q 3641 2581 3239 2228 
Q 2838 1875 2053 1875 
L 1259 1875 
L 1259 0 
L 628 0 
L 628 4666 
z
" transform="scale(0.015625)"/>
        <path id="DejaVuSans-29" d="M 513 4856 
L 1013 4856 
Q 1481 4119 1714 3412 
Q 1947 2706 1947 2009 
Q 1947 1309 1714 600 
Q 1481 -109 1013 -844 
L 513 -844 
Q 928 -128 1133 580 
Q 1338 1288 1338 2009 
Q 1338 2731 1133 3434 
Q 928 4138 513 4856 
z
" transform="scale(0.015625)"/>
       </defs>
       <use xlink:href="#DejaVuSans-52"/>
       <use xlink:href="#DejaVuSans-65" x="64.982422"/>
       <use xlink:href="#DejaVuSans-64" x="126.505859"/>
       <use xlink:href="#DejaVuSans-65" x="189.982422"/>
       <use xlink:href="#DejaVuSans-20" x="251.505859"/>
       <use xlink:href="#DejaVuSans-4e" x="283.292969"/>
       <use xlink:href="#DejaVuSans-65" x="358.097656"/>
       <use xlink:href="#DejaVuSans-75" x="419.621094"/>
       <use xlink:href="#DejaVuSans-72" x="483"/>
       <use xlink:href="#DejaVuSans-61" x="524.113281"/>
       <use xlink:href="#DejaVuSans-6c" x="585.392578"/>
       <use xlink:href="#DejaVuSans-20" x="613.175781"/>
       <use xlink:href="#DejaVuSans-28" x="644.962891"/>
       <use xlink:href="#DejaVuSans-4d" x="683.976562"/>
       <use xlink:href="#DejaVuSans-4c" x="770.255859"/>
       <use xlink:href="#DejaVuSans-50" x="825.96875"/>
       <use xlink:href="#DejaVuSans-29" x="886.271484"/>
      </g>
     </g>
    </g>
    <g id="xtick_4">
     <g id="line2d_4">
      <g>
       <use xlink:href="#m86a9ce174f" x="484.285785" y="341.986673" style="stroke: #000000; stroke-width: 0.8"/>
      </g>
     </g>
     <g id="text_4">
      <!-- Regressão Logística -->
      <g transform="translate(466.524225 420.816396) rotate(-60) scale(0.08 -0.08)">
       <defs>
        <path id="DejaVuSans-67" d="M 2906 1791 
Q 2906 2416 2648 2759 
Q 2391 3103 1925 3103 
Q 1463 3103 1205 2759 
Q 947 2416 947 1791 
Q 947 1169 1205 825 
Q 1463 481 1925 481 
Q 2391 481 2648 825 
Q 2906 1169 2906 1791 
z
M 3481 434 
Q 3481 -459 3084 -895 
Q 2688 -1331 1869 -1331 
Q 1566 -1331 1297 -1286 
Q 1028 -1241 775 -1147 
L 775 -588 
Q 1028 -725 1275 -790 
Q 1522 -856 1778 -856 
Q 2344 -856 2625 -561 
Q 2906 -266 2906 331 
L 2906 616 
Q 2728 306 2450 153 
Q 2172 0 1784 0 
Q 1141 0 747 490 
Q 353 981 353 1791 
Q 353 2603 747 3093 
Q 1141 3584 1784 3584 
Q 2172 3584 2450 3431 
Q 2728 3278 2906 2969 
L 2906 3500 
L 3481 3500 
L 3481 434 
z
" transform="scale(0.015625)"/>
        <path id="DejaVuSans-e3" d="M 2194 1759 
Q 1497 1759 1228 1600 
Q 959 1441 959 1056 
Q 959 750 1161 570 
Q 1363 391 1709 391 
Q 2188 391 2477 730 
Q 2766 1069 2766 1631 
L 2766 1759 
L 2194 1759 
z
M 3341 1997 
L 3341 0 
L 2766 0 
L 2766 531 
Q 2569 213 2275 61 
Q 1981 -91 1556 -91 
Q 1019 -91 701 211 
Q 384 513 384 1019 
Q 384 1609 779 1909 
Q 1175 2209 1959 2209 
L 2766 2209 
L 2766 2266 
Q 2766 2663 2505 2880 
Q 2244 3097 1772 3097 
Q 1472 3097 1187 3025 
Q 903 2953 641 2809 
L 641 3341 
Q 956 3463 1253 3523 
Q 1550 3584 1831 3584 
Q 2591 3584 2966 3190 
Q 3341 2797 3341 1997 
z
M 1844 4281 
L 1666 4453 
Q 1597 4516 1545 4545 
Q 1494 4575 1453 4575 
Q 1334 4575 1278 4461 
Q 1222 4347 1216 4091 
L 825 4091 
Q 831 4513 990 4742 
Q 1150 4972 1434 4972 
Q 1553 4972 1653 4928 
Q 1753 4884 1869 4781 
L 2047 4609 
Q 2116 4547 2167 4517 
Q 2219 4488 2259 4488 
Q 2378 4488 2434 4602 
Q 2491 4716 2497 4972 
L 2888 4972 
Q 2881 4550 2722 4320 
Q 2563 4091 2278 4091 
Q 2159 4091 2059 4134 
Q 1959 4178 1844 4281 
z
" transform="scale(0.015625)"/>
        <path id="DejaVuSans-ed" d="M 1325 5119 
L 1947 5119 
L 928 3944 
L 450 3944 
L 1325 5119 
z
M 603 3500 
L 1178 3500 
L 1178 0 
L 603 0 
L 603 3500 
z
M 891 3584 
L 891 3584 
z
" transform="scale(0.015625)"/>
        <path id="DejaVuSans-74" d="M 1172 4494 
L 1172 3500 
L 2356 3500 
L 2356 3053 
L 1172 3053 
L 1172 1153 
Q 1172 725 1289 603 
Q 1406 481 1766 481 
L 2356 481 
L 2356 0 
L 1766 0 
Q 1100 0 847 248 
Q 594 497 594 1153 
L 594 3053 
L 172 3053 
L 172 3500 
L 594 3500 
L 594 4494 
L 1172 4494 
z
" transform="scale(0.015625)"/>
       </defs>
       <use xlink:href="#DejaVuSans-52"/>
       <use xlink:href="#DejaVuSans-65" x="64.982422"/>
       <use xlink:href="#DejaVuSans-67" x="126.505859"/>
       <use xlink:href="#DejaVuSans-72" x="189.982422"/>
       <use xlink:href="#DejaVuSans-65" x="228.845703"/>
       <use xlink:href="#DejaVuSans-73" x="290.369141"/>
       <use xlink:href="#DejaVuSans-73" x="342.46875"/>
       <use xlink:href="#DejaVuSans-e3" x="394.568359"/>
       <use xlink:href="#DejaVuSans-6f" x="455.847656"/>
       <use xlink:href="#DejaVuSans-20" x="517.029297"/>
       <use xlink:href="#DejaVuSans-4c" x="548.816406"/>
       <use xlink:href="#DejaVuSans-6f" x="602.779297"/>
       <use xlink:href="#DejaVuSans-67" x="663.960938"/>
       <use xlink:href="#DejaVuSans-ed" x="727.4375"/>
       <use xlink:href="#DejaVuSans-73" x="755.220703"/>
       <use xlink:href="#DejaVuSans-74" x="807.320312"/>
       <use xlink:href="#DejaVuSans-69" x="846.529297"/>
       <use xlink:href="#DejaVuSans-63" x="874.3125"/>
       <use xlink:href="#DejaVuSans-61" x="929.292969"/>
      </g>
     </g>
    </g>
    <g id="xtick_5">
     <g id="line2d_5">
      <g>
       <use xlink:href="#m86a9ce174f" x="614.364298" y="341.986673" style="stroke: #000000; stroke-width: 0.8"/>
      </g>
     </g>
     <g id="text_5">
      <!-- Random Forest -->
      <g transform="translate(601.225736 404.161859) rotate(-60) scale(0.08 -0.08)">
       <defs>
        <path id="DejaVuSans-6d" d="M 3328 2828 
Q 3544 3216 3844 3400 
Q 4144 3584 4550 3584 
Q 5097 3584 5394 3201 
Q 5691 2819 5691 2113 
L 5691 0 
L 5113 0 
L 5113 2094 
Q 5113 2597 4934 2840 
Q 4756 3084 4391 3084 
Q 3944 3084 3684 2787 
Q 3425 2491 3425 1978 
L 3425 0 
L 2847 0 
L 2847 2094 
Q 2847 2600 2669 2842 
Q 2491 3084 2119 3084 
Q 1678 3084 1418 2786 
Q 1159 2488 1159 1978 
L 1159 0 
L 581 0 
L 581 3500 
L 1159 3500 
L 1159 2956 
Q 1356 3278 1631 3431 
Q 1906 3584 2284 3584 
Q 2666 3584 2933 3390 
Q 3200 3197 3328 2828 
z
" transform="scale(0.015625)"/>
        <path id="DejaVuSans-46" d="M 628 4666 
L 3309 4666 
L 3309 4134 
L 1259 4134 
L 1259 2759 
L 3109 2759 
L 3109 2228 
L 1259 2228 
L 1259 0 
L 628 0 
L 628 4666 
z
" transform="scale(0.015625)"/>
       </defs>
       <use xlink:href="#DejaVuSans-52"/>
       <use xlink:href="#DejaVuSans-61" x="67.232422"/>
       <use xlink:href="#DejaVuSans-6e" x="128.511719"/>
       <use xlink:href="#DejaVuSans-64" x="191.890625"/>
       <use xlink:href="#DejaVuSans-6f" x="255.367188"/>
       <use xlink:href="#DejaVuSans-6d" x="316.548828"/>
       <use xlink:href="#DejaVuSans-20" x="413.960938"/>
       <use xlink:href="#DejaVuSans-46" x="445.748047"/>
       <use xlink:href="#DejaVuSans-6f" x="499.642578"/>
       <use xlink:href="#DejaVuSans-72" x="560.824219"/>
       <use xlink:href="#DejaVuSans-65" x="599.6875"/>
       <use xlink:href="#DejaVuSans-73" x="661.210938"/>
       <use xlink:href="#DejaVuSans-74" x="713.310547"/>
      </g>
     </g>
    </g>
   </g>
   <g id="text_6">
    <!-- Acurácia dos algoritmos -->
    <g style="fill: #808080" transform="translate(263.152314 57.071476) scale(0.16 -0.16)">
     <defs>
      <path id="DejaVuSans-Bold-41" d="M 3419 850 
L 1538 850 
L 1241 0 
L 31 0 
L 1759 4666 
L 3194 4666 
L 4922 0 
L 3713 0 
L 3419 850 
z
M 1838 1716 
L 3116 1716 
L 2478 3572 
L 1838 1716 
z
" transform="scale(0.015625)"/>
      <path id="DejaVuSans-Bold-63" d="M 3366 3391 
L 3366 2478 
Q 3138 2634 2908 2709 
Q 2678 2784 2431 2784 
Q 1963 2784 1702 2511 
Q 1441 2238 1441 1747 
Q 1441 1256 1702 982 
Q 1963 709 2431 709 
Q 2694 709 2930 787 
Q 3166 866 3366 1019 
L 3366 103 
Q 3103 6 2833 -42 
Q 2563 -91 2291 -91 
Q 1344 -91 809 395 
Q 275 881 275 1747 
Q 275 2613 809 3098 
Q 1344 3584 2291 3584 
Q 2566 3584 2833 3536 
Q 3100 3488 3366 3391 
z
" transform="scale(0.015625)"/>
      <path id="DejaVuSans-Bold-75" d="M 500 1363 
L 500 3500 
L 1625 3500 
L 1625 3150 
Q 1625 2866 1622 2436 
Q 1619 2006 1619 1863 
Q 1619 1441 1641 1255 
Q 1663 1069 1716 984 
Q 1784 875 1895 815 
Q 2006 756 2150 756 
Q 2500 756 2700 1025 
Q 2900 1294 2900 1772 
L 2900 3500 
L 4019 3500 
L 4019 0 
L 2900 0 
L 2900 506 
Q 2647 200 2364 54 
Q 2081 -91 1741 -91 
Q 1134 -91 817 281 
Q 500 653 500 1363 
z
" transform="scale(0.015625)"/>
      <path id="DejaVuSans-Bold-72" d="M 3138 2547 
Q 2991 2616 2845 2648 
Q 2700 2681 2553 2681 
Q 2122 2681 1889 2404 
Q 1656 2128 1656 1613 
L 1656 0 
L 538 0 
L 538 3500 
L 1656 3500 
L 1656 2925 
Q 1872 3269 2151 3426 
Q 2431 3584 2822 3584 
Q 2878 3584 2943 3579 
Q 3009 3575 3134 3559 
L 3138 2547 
z
" transform="scale(0.015625)"/>
      <path id="DejaVuSans-Bold-e1" d="M 2106 1575 
Q 1756 1575 1579 1456 
Q 1403 1338 1403 1106 
Q 1403 894 1545 773 
Q 1688 653 1941 653 
Q 2256 653 2472 879 
Q 2688 1106 2688 1447 
L 2688 1575 
L 2106 1575 
z
M 3816 1997 
L 3816 0 
L 2688 0 
L 2688 519 
Q 2463 200 2181 54 
Q 1900 -91 1497 -91 
Q 953 -91 614 226 
Q 275 544 275 1050 
Q 275 1666 698 1953 
Q 1122 2241 2028 2241 
L 2688 2241 
L 2688 2328 
Q 2688 2594 2478 2717 
Q 2269 2841 1825 2841 
Q 1466 2841 1156 2769 
Q 847 2697 581 2553 
L 581 3406 
Q 941 3494 1303 3539 
Q 1666 3584 2028 3584 
Q 2975 3584 3395 3211 
Q 3816 2838 3816 1997 
z
M 2603 5119 
L 3488 5119 
L 2334 3944 
L 1722 3944 
L 2603 5119 
z
" transform="scale(0.015625)"/>
      <path id="DejaVuSans-Bold-69" d="M 538 3500 
L 1656 3500 
L 1656 0 
L 538 0 
L 538 3500 
z
M 538 4863 
L 1656 4863 
L 1656 3950 
L 538 3950 
L 538 4863 
z
" transform="scale(0.015625)"/>
      <path id="DejaVuSans-Bold-61" d="M 2106 1575 
Q 1756 1575 1579 1456 
Q 1403 1338 1403 1106 
Q 1403 894 1545 773 
Q 1688 653 1941 653 
Q 2256 653 2472 879 
Q 2688 1106 2688 1447 
L 2688 1575 
L 2106 1575 
z
M 3816 1997 
L 3816 0 
L 2688 0 
L 2688 519 
Q 2463 200 2181 54 
Q 1900 -91 1497 -91 
Q 953 -91 614 226 
Q 275 544 275 1050 
Q 275 1666 698 1953 
Q 1122 2241 2028 2241 
L 2688 2241 
L 2688 2328 
Q 2688 2594 2478 2717 
Q 2269 2841 1825 2841 
Q 1466 2841 1156 2769 
Q 847 2697 581 2553 
L 581 3406 
Q 941 3494 1303 3539 
Q 1666 3584 2028 3584 
Q 2975 3584 3395 3211 
Q 3816 2838 3816 1997 
z
" transform="scale(0.015625)"/>
      <path id="DejaVuSans-Bold-20" transform="scale(0.015625)"/>
      <path id="DejaVuSans-Bold-64" d="M 2919 2988 
L 2919 4863 
L 4044 4863 
L 4044 0 
L 2919 0 
L 2919 506 
Q 2688 197 2409 53 
Q 2131 -91 1766 -91 
Q 1119 -91 703 423 
Q 288 938 288 1747 
Q 288 2556 703 3070 
Q 1119 3584 1766 3584 
Q 2128 3584 2408 3439 
Q 2688 3294 2919 2988 
z
M 2181 722 
Q 2541 722 2730 984 
Q 2919 1247 2919 1747 
Q 2919 2247 2730 2509 
Q 2541 2772 2181 2772 
Q 1825 2772 1636 2509 
Q 1447 2247 1447 1747 
Q 1447 1247 1636 984 
Q 1825 722 2181 722 
z
" transform="scale(0.015625)"/>
      <path id="DejaVuSans-Bold-6f" d="M 2203 2784 
Q 1831 2784 1636 2517 
Q 1441 2250 1441 1747 
Q 1441 1244 1636 976 
Q 1831 709 2203 709 
Q 2569 709 2762 976 
Q 2956 1244 2956 1747 
Q 2956 2250 2762 2517 
Q 2569 2784 2203 2784 
z
M 2203 3584 
Q 3106 3584 3614 3096 
Q 4122 2609 4122 1747 
Q 4122 884 3614 396 
Q 3106 -91 2203 -91 
Q 1297 -91 786 396 
Q 275 884 275 1747 
Q 275 2609 786 3096 
Q 1297 3584 2203 3584 
z
" transform="scale(0.015625)"/>
      <path id="DejaVuSans-Bold-73" d="M 3272 3391 
L 3272 2541 
Q 2913 2691 2578 2766 
Q 2244 2841 1947 2841 
Q 1628 2841 1473 2761 
Q 1319 2681 1319 2516 
Q 1319 2381 1436 2309 
Q 1553 2238 1856 2203 
L 2053 2175 
Q 2913 2066 3209 1816 
Q 3506 1566 3506 1031 
Q 3506 472 3093 190 
Q 2681 -91 1863 -91 
Q 1516 -91 1145 -36 
Q 775 19 384 128 
L 384 978 
Q 719 816 1070 734 
Q 1422 653 1784 653 
Q 2113 653 2278 743 
Q 2444 834 2444 1013 
Q 2444 1163 2330 1236 
Q 2216 1309 1875 1350 
L 1678 1375 
Q 931 1469 631 1722 
Q 331 1975 331 2491 
Q 331 3047 712 3315 
Q 1094 3584 1881 3584 
Q 2191 3584 2531 3537 
Q 2872 3491 3272 3391 
z
" transform="scale(0.015625)"/>
      <path id="DejaVuSans-Bold-6c" d="M 538 4863 
L 1656 4863 
L 1656 0 
L 538 0 
L 538 4863 
z
" transform="scale(0.015625)"/>
      <path id="DejaVuSans-Bold-67" d="M 2919 594 
Q 2688 288 2409 144 
Q 2131 0 1766 0 
Q 1125 0 706 504 
Q 288 1009 288 1791 
Q 288 2575 706 3076 
Q 1125 3578 1766 3578 
Q 2131 3578 2409 3434 
Q 2688 3291 2919 2981 
L 2919 3500 
L 4044 3500 
L 4044 353 
Q 4044 -491 3511 -936 
Q 2978 -1381 1966 -1381 
Q 1638 -1381 1331 -1331 
Q 1025 -1281 716 -1178 
L 716 -306 
Q 1009 -475 1290 -558 
Q 1572 -641 1856 -641 
Q 2406 -641 2662 -400 
Q 2919 -159 2919 353 
L 2919 594 
z
M 2181 2772 
Q 1834 2772 1640 2515 
Q 1447 2259 1447 1791 
Q 1447 1309 1634 1061 
Q 1822 813 2181 813 
Q 2531 813 2725 1069 
Q 2919 1325 2919 1791 
Q 2919 2259 2725 2515 
Q 2531 2772 2181 2772 
z
" transform="scale(0.015625)"/>
      <path id="DejaVuSans-Bold-74" d="M 1759 4494 
L 1759 3500 
L 2913 3500 
L 2913 2700 
L 1759 2700 
L 1759 1216 
Q 1759 972 1856 886 
Q 1953 800 2241 800 
L 2816 800 
L 2816 0 
L 1856 0 
Q 1194 0 917 276 
Q 641 553 641 1216 
L 641 2700 
L 84 2700 
L 84 3500 
L 641 3500 
L 641 4494 
L 1759 4494 
z
" transform="scale(0.015625)"/>
      <path id="DejaVuSans-Bold-6d" d="M 3781 2919 
Q 3994 3244 4286 3414 
Q 4578 3584 4928 3584 
Q 5531 3584 5847 3212 
Q 6163 2841 6163 2131 
L 6163 0 
L 5038 0 
L 5038 1825 
Q 5041 1866 5042 1909 
Q 5044 1953 5044 2034 
Q 5044 2406 4934 2573 
Q 4825 2741 4581 2741 
Q 4263 2741 4089 2478 
Q 3916 2216 3909 1719 
L 3909 0 
L 2784 0 
L 2784 1825 
Q 2784 2406 2684 2573 
Q 2584 2741 2328 2741 
Q 2006 2741 1831 2477 
Q 1656 2213 1656 1722 
L 1656 0 
L 531 0 
L 531 3500 
L 1656 3500 
L 1656 2988 
Q 1863 3284 2130 3434 
Q 2397 3584 2719 3584 
Q 3081 3584 3359 3409 
Q 3638 3234 3781 2919 
z
" transform="scale(0.015625)"/>
     </defs>
     <use xlink:href="#DejaVuSans-Bold-41"/>
     <use xlink:href="#DejaVuSans-Bold-63" x="77.392578"/>
     <use xlink:href="#DejaVuSans-Bold-75" x="136.669922"/>
     <use xlink:href="#DejaVuSans-Bold-72" x="207.861328"/>
     <use xlink:href="#DejaVuSans-Bold-e1" x="257.177734"/>
     <use xlink:href="#DejaVuSans-Bold-63" x="324.658203"/>
     <use xlink:href="#DejaVuSans-Bold-69" x="383.935547"/>
     <use xlink:href="#DejaVuSans-Bold-61" x="418.212891"/>
     <use xlink:href="#DejaVuSans-Bold-20" x="485.693359"/>
     <use xlink:href="#DejaVuSans-Bold-64" x="520.507812"/>
     <use xlink:href="#DejaVuSans-Bold-6f" x="592.089844"/>
     <use xlink:href="#DejaVuSans-Bold-73" x="660.791016"/>
     <use xlink:href="#DejaVuSans-Bold-20" x="720.3125"/>
     <use xlink:href="#DejaVuSans-Bold-61" x="755.126953"/>
     <use xlink:href="#DejaVuSans-Bold-6c" x="822.607422"/>
     <use xlink:href="#DejaVuSans-Bold-67" x="856.884766"/>
     <use xlink:href="#DejaVuSans-Bold-6f" x="928.466797"/>
     <use xlink:href="#DejaVuSans-Bold-72" x="997.167969"/>
     <use xlink:href="#DejaVuSans-Bold-69" x="1046.484375"/>
     <use xlink:href="#DejaVuSans-Bold-74" x="1080.761719"/>
     <use xlink:href="#DejaVuSans-Bold-6d" x="1128.564453"/>
     <use xlink:href="#DejaVuSans-Bold-6f" x="1232.763672"/>
     <use xlink:href="#DejaVuSans-Bold-73" x="1301.464844"/>
    </g>
   </g>
   <g id="text_7">
    <!--                  $\bf{OBSERVAÇÂO}$ -->
    <g style="fill: #808080" transform="translate(679.403554 86.364279) scale(0.08 -0.08)">
     <defs>
      <path id="DejaVuSans-Bold-4f" d="M 2719 3878 
Q 2169 3878 1866 3472 
Q 1563 3066 1563 2328 
Q 1563 1594 1866 1187 
Q 2169 781 2719 781 
Q 3272 781 3575 1187 
Q 3878 1594 3878 2328 
Q 3878 3066 3575 3472 
Q 3272 3878 2719 3878 
z
M 2719 4750 
Q 3844 4750 4481 4106 
Q 5119 3463 5119 2328 
Q 5119 1197 4481 553 
Q 3844 -91 2719 -91 
Q 1597 -91 958 553 
Q 319 1197 319 2328 
Q 319 3463 958 4106 
Q 1597 4750 2719 4750 
z
" transform="scale(0.015625)"/>
      <path id="DejaVuSans-Bold-42" d="M 2456 2859 
Q 2741 2859 2887 2984 
Q 3034 3109 3034 3353 
Q 3034 3594 2887 3720 
Q 2741 3847 2456 3847 
L 1791 3847 
L 1791 2859 
L 2456 2859 
z
M 2497 819 
Q 2859 819 3042 972 
Q 3225 1125 3225 1434 
Q 3225 1738 3044 1889 
Q 2863 2041 2497 2041 
L 1791 2041 
L 1791 819 
L 2497 819 
z
M 3616 2497 
Q 4003 2384 4215 2081 
Q 4428 1778 4428 1338 
Q 4428 663 3972 331 
Q 3516 0 2584 0 
L 588 0 
L 588 4666 
L 2394 4666 
Q 3366 4666 3802 4372 
Q 4238 4078 4238 3431 
Q 4238 3091 4078 2852 
Q 3919 2613 3616 2497 
z
" transform="scale(0.015625)"/>
      <path id="DejaVuSans-Bold-53" d="M 3834 4519 
L 3834 3531 
Q 3450 3703 3084 3790 
Q 2719 3878 2394 3878 
Q 1963 3878 1756 3759 
Q 1550 3641 1550 3391 
Q 1550 3203 1689 3098 
Q 1828 2994 2194 2919 
L 2706 2816 
Q 3484 2659 3812 2340 
Q 4141 2022 4141 1434 
Q 4141 663 3683 286 
Q 3225 -91 2284 -91 
Q 1841 -91 1394 -6 
Q 947 78 500 244 
L 500 1259 
Q 947 1022 1364 901 
Q 1781 781 2169 781 
Q 2563 781 2772 912 
Q 2981 1044 2981 1288 
Q 2981 1506 2839 1625 
Q 2697 1744 2272 1838 
L 1806 1941 
Q 1106 2091 782 2419 
Q 459 2747 459 3303 
Q 459 4000 909 4375 
Q 1359 4750 2203 4750 
Q 2588 4750 2994 4692 
Q 3400 4634 3834 4519 
z
" transform="scale(0.015625)"/>
      <path id="DejaVuSans-Bold-45" d="M 588 4666 
L 3834 4666 
L 3834 3756 
L 1791 3756 
L 1791 2888 
L 3713 2888 
L 3713 1978 
L 1791 1978 
L 1791 909 
L 3903 909 
L 3903 0 
L 588 0 
L 588 4666 
z
" transform="scale(0.015625)"/>
      <path id="DejaVuSans-Bold-52" d="M 2297 2597 
Q 2675 2597 2839 2737 
Q 3003 2878 3003 3200 
Q 3003 3519 2839 3656 
Q 2675 3794 2297 3794 
L 1791 3794 
L 1791 2597 
L 2297 2597 
z
M 1791 1766 
L 1791 0 
L 588 0 
L 588 4666 
L 2425 4666 
Q 3347 4666 3776 4356 
Q 4206 4047 4206 3378 
Q 4206 2916 3982 2619 
Q 3759 2322 3309 2181 
Q 3556 2125 3751 1926 
Q 3947 1728 4147 1325 
L 4800 0 
L 3519 0 
L 2950 1159 
Q 2778 1509 2601 1637 
Q 2425 1766 2131 1766 
L 1791 1766 
z
" transform="scale(0.015625)"/>
      <path id="DejaVuSans-Bold-56" d="M 31 4666 
L 1241 4666 
L 2478 1222 
L 3713 4666 
L 4922 4666 
L 3194 0 
L 1759 0 
L 31 4666 
z
" transform="scale(0.015625)"/>
      <path id="DejaVuSans-Bold-c7" d="M 4288 256 
Q 3956 84 3597 -3 
Q 3238 -91 2847 -91 
Q 1681 -91 1000 561 
Q 319 1213 319 2328 
Q 319 3447 1000 4098 
Q 1681 4750 2847 4750 
Q 3238 4750 3597 4662 
Q 3956 4575 4288 4403 
L 4288 3438 
Q 3953 3666 3628 3772 
Q 3303 3878 2944 3878 
Q 2300 3878 1931 3465 
Q 1563 3053 1563 2328 
Q 1563 1606 1931 1193 
Q 2300 781 2944 781 
Q 3303 781 3628 887 
Q 3953 994 4288 1222 
L 4288 256 
z
M 3041 0 
Q 3222 -194 3308 -359 
Q 3394 -525 3394 -672 
Q 3394 -969 3201 -1111 
Q 3009 -1253 2613 -1253 
Q 2463 -1253 2303 -1233 
Q 2144 -1213 1981 -1172 
L 1978 -697 
Q 2134 -747 2264 -770 
Q 2394 -794 2497 -794 
Q 2678 -794 2779 -722 
Q 2881 -650 2881 -525 
Q 2881 -444 2814 -316 
Q 2747 -188 2606 0 
L 3041 0 
z
" transform="scale(0.015625)"/>
      <path id="DejaVuSans-Bold-c2" d="M 3419 850 
L 1538 850 
L 1241 0 
L 31 0 
L 1759 4666 
L 3194 4666 
L 4922 0 
L 3713 0 
L 3419 850 
z
M 1838 1716 
L 3116 1716 
L 2478 3572 
L 1838 1716 
z
M 1994 5935 
L 2956 5935 
L 3653 5110 
L 3097 5110 
L 2475 5613 
L 1853 5110 
L 1297 5110 
L 1994 5935 
z
" transform="scale(0.015625)"/>
     </defs>
     <use xlink:href="#DejaVuSans-20" transform="translate(0 0.265625)"/>
     <use xlink:href="#DejaVuSans-20" transform="translate(31.787109 0.265625)"/>
     <use xlink:href="#DejaVuSans-20" transform="translate(63.574219 0.265625)"/>
     <use xlink:href="#DejaVuSans-20" transform="translate(95.361328 0.265625)"/>
     <use xlink:href="#DejaVuSans-20" transform="translate(127.148438 0.265625)"/>
     <use xlink:href="#DejaVuSans-20" transform="translate(158.935547 0.265625)"/>
     <use xlink:href="#DejaVuSans-20" transform="translate(190.722656 0.265625)"/>
     <use xlink:href="#DejaVuSans-20" transform="translate(222.509766 0.265625)"/>
     <use xlink:href="#DejaVuSans-20" transform="translate(254.296875 0.265625)"/>
     <use xlink:href="#DejaVuSans-20" transform="translate(286.083984 0.265625)"/>
     <use xlink:href="#DejaVuSans-20" transform="translate(317.871094 0.265625)"/>
     <use xlink:href="#DejaVuSans-20" transform="translate(349.658203 0.265625)"/>
     <use xlink:href="#DejaVuSans-20" transform="translate(381.445312 0.265625)"/>
     <use xlink:href="#DejaVuSans-20" transform="translate(413.232422 0.265625)"/>
     <use xlink:href="#DejaVuSans-20" transform="translate(445.019531 0.265625)"/>
     <use xlink:href="#DejaVuSans-20" transform="translate(476.806641 0.265625)"/>
     <use xlink:href="#DejaVuSans-20" transform="translate(508.59375 0.265625)"/>
     <use xlink:href="#DejaVuSans-Bold-4f" transform="translate(540.380859 0.265625)"/>
     <use xlink:href="#DejaVuSans-Bold-42" transform="translate(625.390625 0.265625)"/>
     <use xlink:href="#DejaVuSans-Bold-53" transform="translate(701.611328 0.265625)"/>
     <use xlink:href="#DejaVuSans-Bold-45" transform="translate(773.632812 0.265625)"/>
     <use xlink:href="#DejaVuSans-Bold-52" transform="translate(841.943359 0.265625)"/>
     <use xlink:href="#DejaVuSans-Bold-56" transform="translate(918.945312 0.265625)"/>
     <use xlink:href="#DejaVuSans-Bold-41" transform="translate(996.337891 0.265625)"/>
     <use xlink:href="#DejaVuSans-Bold-c7" transform="translate(1073.730469 0.265625)"/>
     <use xlink:href="#DejaVuSans-Bold-c2" transform="translate(1147.119141 0.265625)"/>
     <use xlink:href="#DejaVuSans-Bold-4f" transform="translate(1224.511719 0.265625)"/>
    </g>
    <!-- Nas colunas azuis constam a acurácia -->
    <g style="fill: #808080" transform="translate(679.403554 95.322529) scale(0.08 -0.08)">
     <defs>
      <path id="DejaVuSans-7a" d="M 353 3500 
L 3084 3500 
L 3084 2975 
L 922 459 
L 3084 459 
L 3084 0 
L 275 0 
L 275 525 
L 2438 3041 
L 353 3041 
L 353 3500 
z
" transform="scale(0.015625)"/>
      <path id="DejaVuSans-e1" d="M 2194 1759 
Q 1497 1759 1228 1600 
Q 959 1441 959 1056 
Q 959 750 1161 570 
Q 1363 391 1709 391 
Q 2188 391 2477 730 
Q 2766 1069 2766 1631 
L 2766 1759 
L 2194 1759 
z
M 3341 1997 
L 3341 0 
L 2766 0 
L 2766 531 
Q 2569 213 2275 61 
Q 1981 -91 1556 -91 
Q 1019 -91 701 211 
Q 384 513 384 1019 
Q 384 1609 779 1909 
Q 1175 2209 1959 2209 
L 2766 2209 
L 2766 2266 
Q 2766 2663 2505 2880 
Q 2244 3097 1772 3097 
Q 1472 3097 1187 3025 
Q 903 2953 641 2809 
L 641 3341 
Q 956 3463 1253 3523 
Q 1550 3584 1831 3584 
Q 2591 3584 2966 3190 
Q 3341 2797 3341 1997 
z
M 2291 5119 
L 2913 5119 
L 1894 3944 
L 1416 3944 
L 2291 5119 
z
" transform="scale(0.015625)"/>
     </defs>
     <use xlink:href="#DejaVuSans-4e"/>
     <use xlink:href="#DejaVuSans-61" x="74.804688"/>
     <use xlink:href="#DejaVuSans-73" x="136.083984"/>
     <use xlink:href="#DejaVuSans-20" x="188.183594"/>
     <use xlink:href="#DejaVuSans-63" x="219.970703"/>
     <use xlink:href="#DejaVuSans-6f" x="274.951172"/>
     <use xlink:href="#DejaVuSans-6c" x="336.132812"/>
     <use xlink:href="#DejaVuSans-75" x="363.916016"/>
     <use xlink:href="#DejaVuSans-6e" x="427.294922"/>
     <use xlink:href="#DejaVuSans-61" x="490.673828"/>
     <use xlink:href="#DejaVuSans-73" x="551.953125"/>
     <use xlink:href="#DejaVuSans-20" x="604.052734"/>
     <use xlink:href="#DejaVuSans-61" x="635.839844"/>
     <use xlink:href="#DejaVuSans-7a" x="697.119141"/>
     <use xlink:href="#DejaVuSans-75" x="749.609375"/>
     <use xlink:href="#DejaVuSans-69" x="812.988281"/>
     <use xlink:href="#DejaVuSans-73" x="840.771484"/>
     <use xlink:href="#DejaVuSans-20" x="892.871094"/>
     <use xlink:href="#DejaVuSans-63" x="924.658203"/>
     <use xlink:href="#DejaVuSans-6f" x="979.638672"/>
     <use xlink:href="#DejaVuSans-6e" x="1040.820312"/>
     <use xlink:href="#DejaVuSans-73" x="1104.199219"/>
     <use xlink:href="#DejaVuSans-74" x="1156.298828"/>
     <use xlink:href="#DejaVuSans-61" x="1195.507812"/>
     <use xlink:href="#DejaVuSans-6d" x="1256.787109"/>
     <use xlink:href="#DejaVuSans-20" x="1354.199219"/>
     <use xlink:href="#DejaVuSans-61" x="1385.986328"/>
     <use xlink:href="#DejaVuSans-20" x="1447.265625"/>
     <use xlink:href="#DejaVuSans-61" x="1479.052734"/>
     <use xlink:href="#DejaVuSans-63" x="1540.332031"/>
     <use xlink:href="#DejaVuSans-75" x="1595.3125"/>
     <use xlink:href="#DejaVuSans-72" x="1658.691406"/>
     <use xlink:href="#DejaVuSans-e1" x="1699.804688"/>
     <use xlink:href="#DejaVuSans-63" x="1761.083984"/>
     <use xlink:href="#DejaVuSans-69" x="1816.064453"/>
     <use xlink:href="#DejaVuSans-61" x="1843.847656"/>
    </g>
    <!-- dos algoritmos antes dos ajustes nos -->
    <g style="fill: #808080" transform="translate(679.403554 104.280779) scale(0.08 -0.08)">
     <defs>
      <path id="DejaVuSans-6a" d="M 603 3500 
L 1178 3500 
L 1178 -63 
Q 1178 -731 923 -1031 
Q 669 -1331 103 -1331 
L -116 -1331 
L -116 -844 
L 38 -844 
Q 366 -844 484 -692 
Q 603 -541 603 -63 
L 603 3500 
z
M 603 4863 
L 1178 4863 
L 1178 4134 
L 603 4134 
L 603 4863 
z
" transform="scale(0.015625)"/>
     </defs>
     <use xlink:href="#DejaVuSans-64"/>
     <use xlink:href="#DejaVuSans-6f" x="63.476562"/>
     <use xlink:href="#DejaVuSans-73" x="124.658203"/>
     <use xlink:href="#DejaVuSans-20" x="176.757812"/>
     <use xlink:href="#DejaVuSans-61" x="208.544922"/>
     <use xlink:href="#DejaVuSans-6c" x="269.824219"/>
     <use xlink:href="#DejaVuSans-67" x="297.607422"/>
     <use xlink:href="#DejaVuSans-6f" x="361.083984"/>
     <use xlink:href="#DejaVuSans-72" x="422.265625"/>
     <use xlink:href="#DejaVuSans-69" x="463.378906"/>
     <use xlink:href="#DejaVuSans-74" x="491.162109"/>
     <use xlink:href="#DejaVuSans-6d" x="530.371094"/>
     <use xlink:href="#DejaVuSans-6f" x="627.783203"/>
     <use xlink:href="#DejaVuSans-73" x="688.964844"/>
     <use xlink:href="#DejaVuSans-20" x="741.064453"/>
     <use xlink:href="#DejaVuSans-61" x="772.851562"/>
     <use xlink:href="#DejaVuSans-6e" x="834.130859"/>
     <use xlink:href="#DejaVuSans-74" x="897.509766"/>
     <use xlink:href="#DejaVuSans-65" x="936.71875"/>
     <use xlink:href="#DejaVuSans-73" x="998.242188"/>
     <use xlink:href="#DejaVuSans-20" x="1050.341797"/>
     <use xlink:href="#DejaVuSans-64" x="1082.128906"/>
     <use xlink:href="#DejaVuSans-6f" x="1145.605469"/>
     <use xlink:href="#DejaVuSans-73" x="1206.787109"/>
     <use xlink:href="#DejaVuSans-20" x="1258.886719"/>
     <use xlink:href="#DejaVuSans-61" x="1290.673828"/>
     <use xlink:href="#DejaVuSans-6a" x="1351.953125"/>
     <use xlink:href="#DejaVuSans-75" x="1379.736328"/>
     <use xlink:href="#DejaVuSans-73" x="1443.115234"/>
     <use xlink:href="#DejaVuSans-74" x="1495.214844"/>
     <use xlink:href="#DejaVuSans-65" x="1534.423828"/>
     <use xlink:href="#DejaVuSans-73" x="1595.947266"/>
     <use xlink:href="#DejaVuSans-20" x="1648.046875"/>
     <use xlink:href="#DejaVuSans-6e" x="1679.833984"/>
     <use xlink:href="#DejaVuSans-6f" x="1743.212891"/>
     <use xlink:href="#DejaVuSans-73" x="1804.394531"/>
    </g>
    <!-- hiperparâmetros, já nas colunas vermelhas -->
    <g style="fill: #808080" transform="translate(679.403554 113.623029) scale(0.08 -0.08)">
     <defs>
      <path id="DejaVuSans-68" d="M 3513 2113 
L 3513 0 
L 2938 0 
L 2938 2094 
Q 2938 2591 2744 2837 
Q 2550 3084 2163 3084 
Q 1697 3084 1428 2787 
Q 1159 2491 1159 1978 
L 1159 0 
L 581 0 
L 581 4863 
L 1159 4863 
L 1159 2956 
Q 1366 3272 1645 3428 
Q 1925 3584 2291 3584 
Q 2894 3584 3203 3211 
Q 3513 2838 3513 2113 
z
" transform="scale(0.015625)"/>
      <path id="DejaVuSans-70" d="M 1159 525 
L 1159 -1331 
L 581 -1331 
L 581 3500 
L 1159 3500 
L 1159 2969 
Q 1341 3281 1617 3432 
Q 1894 3584 2278 3584 
Q 2916 3584 3314 3078 
Q 3713 2572 3713 1747 
Q 3713 922 3314 415 
Q 2916 -91 2278 -91 
Q 1894 -91 1617 61 
Q 1341 213 1159 525 
z
M 3116 1747 
Q 3116 2381 2855 2742 
Q 2594 3103 2138 3103 
Q 1681 3103 1420 2742 
Q 1159 2381 1159 1747 
Q 1159 1113 1420 752 
Q 1681 391 2138 391 
Q 2594 391 2855 752 
Q 3116 1113 3116 1747 
z
" transform="scale(0.015625)"/>
      <path id="DejaVuSans-e2" d="M 2194 1759 
Q 1497 1759 1228 1600 
Q 959 1441 959 1056 
Q 959 750 1161 570 
Q 1363 391 1709 391 
Q 2188 391 2477 730 
Q 2766 1069 2766 1631 
L 2766 1759 
L 2194 1759 
z
M 3341 1997 
L 3341 0 
L 2766 0 
L 2766 531 
Q 2569 213 2275 61 
Q 1981 -91 1556 -91 
Q 1019 -91 701 211 
Q 384 513 384 1019 
Q 384 1609 779 1909 
Q 1175 2209 1959 2209 
L 2766 2209 
L 2766 2266 
Q 2766 2663 2505 2880 
Q 2244 3097 1772 3097 
Q 1472 3097 1187 3025 
Q 903 2953 641 2809 
L 641 3341 
Q 956 3463 1253 3523 
Q 1550 3584 1831 3584 
Q 2591 3584 2966 3190 
Q 3341 2797 3341 1997 
z
M 1625 5119 
L 2088 5119 
L 2853 3944 
L 2419 3944 
L 1856 4709 
L 1294 3944 
L 859 3944 
L 1625 5119 
z
" transform="scale(0.015625)"/>
      <path id="DejaVuSans-2c" d="M 750 794 
L 1409 794 
L 1409 256 
L 897 -744 
L 494 -744 
L 750 256 
L 750 794 
z
" transform="scale(0.015625)"/>
      <path id="DejaVuSans-76" d="M 191 3500 
L 800 3500 
L 1894 563 
L 2988 3500 
L 3597 3500 
L 2284 0 
L 1503 0 
L 191 3500 
z
" transform="scale(0.015625)"/>
     </defs>
     <use xlink:href="#DejaVuSans-68"/>
     <use xlink:href="#DejaVuSans-69" x="63.378906"/>
     <use xlink:href="#DejaVuSans-70" x="91.162109"/>
     <use xlink:href="#DejaVuSans-65" x="154.638672"/>
     <use xlink:href="#DejaVuSans-72" x="216.162109"/>
     <use xlink:href="#DejaVuSans-70" x="257.275391"/>
     <use xlink:href="#DejaVuSans-61" x="320.751953"/>
     <use xlink:href="#DejaVuSans-72" x="382.03125"/>
     <use xlink:href="#DejaVuSans-e2" x="423.144531"/>
     <use xlink:href="#DejaVuSans-6d" x="484.423828"/>
     <use xlink:href="#DejaVuSans-65" x="581.835938"/>
     <use xlink:href="#DejaVuSans-74" x="643.359375"/>
     <use xlink:href="#DejaVuSans-72" x="682.568359"/>
     <use xlink:href="#DejaVuSans-6f" x="721.431641"/>
     <use xlink:href="#DejaVuSans-73" x="782.613281"/>
     <use xlink:href="#DejaVuSans-2c" x="834.712891"/>
     <use xlink:href="#DejaVuSans-20" x="866.5"/>
     <use xlink:href="#DejaVuSans-6a" x="898.287109"/>
     <use xlink:href="#DejaVuSans-e1" x="926.070312"/>
     <use xlink:href="#DejaVuSans-20" x="987.349609"/>
     <use xlink:href="#DejaVuSans-6e" x="1019.136719"/>
     <use xlink:href="#DejaVuSans-61" x="1082.515625"/>
     <use xlink:href="#DejaVuSans-73" x="1143.794922"/>
     <use xlink:href="#DejaVuSans-20" x="1195.894531"/>
     <use xlink:href="#DejaVuSans-63" x="1227.681641"/>
     <use xlink:href="#DejaVuSans-6f" x="1282.662109"/>
     <use xlink:href="#DejaVuSans-6c" x="1343.84375"/>
     <use xlink:href="#DejaVuSans-75" x="1371.626953"/>
     <use xlink:href="#DejaVuSans-6e" x="1435.005859"/>
     <use xlink:href="#DejaVuSans-61" x="1498.384766"/>
     <use xlink:href="#DejaVuSans-73" x="1559.664062"/>
     <use xlink:href="#DejaVuSans-20" x="1611.763672"/>
     <use xlink:href="#DejaVuSans-76" x="1643.550781"/>
     <use xlink:href="#DejaVuSans-65" x="1702.730469"/>
     <use xlink:href="#DejaVuSans-72" x="1764.253906"/>
     <use xlink:href="#DejaVuSans-6d" x="1803.617188"/>
     <use xlink:href="#DejaVuSans-65" x="1901.029297"/>
     <use xlink:href="#DejaVuSans-6c" x="1962.552734"/>
     <use xlink:href="#DejaVuSans-68" x="1990.335938"/>
     <use xlink:href="#DejaVuSans-61" x="2053.714844"/>
     <use xlink:href="#DejaVuSans-73" x="2114.994141"/>
    </g>
    <!-- constam a acurácia após os ajustes -->
    <g style="fill: #808080" transform="translate(679.403554 122.965279) scale(0.08 -0.08)">
     <defs>
      <path id="DejaVuSans-f3" d="M 1959 3097 
Q 1497 3097 1228 2736 
Q 959 2375 959 1747 
Q 959 1119 1226 758 
Q 1494 397 1959 397 
Q 2419 397 2687 759 
Q 2956 1122 2956 1747 
Q 2956 2369 2687 2733 
Q 2419 3097 1959 3097 
z
M 1959 3584 
Q 2709 3584 3137 3096 
Q 3566 2609 3566 1747 
Q 3566 888 3137 398 
Q 2709 -91 1959 -91 
Q 1206 -91 779 398 
Q 353 888 353 1747 
Q 353 2609 779 3096 
Q 1206 3584 1959 3584 
z
M 2394 5119 
L 3016 5119 
L 1997 3944 
L 1519 3944 
L 2394 5119 
z
" transform="scale(0.015625)"/>
     </defs>
     <use xlink:href="#DejaVuSans-63"/>
     <use xlink:href="#DejaVuSans-6f" x="54.980469"/>
     <use xlink:href="#DejaVuSans-6e" x="116.162109"/>
     <use xlink:href="#DejaVuSans-73" x="179.541016"/>
     <use xlink:href="#DejaVuSans-74" x="231.640625"/>
     <use xlink:href="#DejaVuSans-61" x="270.849609"/>
     <use xlink:href="#DejaVuSans-6d" x="332.128906"/>
     <use xlink:href="#DejaVuSans-20" x="429.541016"/>
     <use xlink:href="#DejaVuSans-61" x="461.328125"/>
     <use xlink:href="#DejaVuSans-20" x="522.607422"/>
     <use xlink:href="#DejaVuSans-61" x="554.394531"/>
     <use xlink:href="#DejaVuSans-63" x="615.673828"/>
     <use xlink:href="#DejaVuSans-75" x="670.654297"/>
     <use xlink:href="#DejaVuSans-72" x="734.033203"/>
     <use xlink:href="#DejaVuSans-e1" x="775.146484"/>
     <use xlink:href="#DejaVuSans-63" x="836.425781"/>
     <use xlink:href="#DejaVuSans-69" x="891.40625"/>
     <use xlink:href="#DejaVuSans-61" x="919.189453"/>
     <use xlink:href="#DejaVuSans-20" x="980.46875"/>
     <use xlink:href="#DejaVuSans-61" x="1012.255859"/>
     <use xlink:href="#DejaVuSans-70" x="1073.535156"/>
     <use xlink:href="#DejaVuSans-f3" x="1137.011719"/>
     <use xlink:href="#DejaVuSans-73" x="1198.193359"/>
     <use xlink:href="#DejaVuSans-20" x="1250.292969"/>
     <use xlink:href="#DejaVuSans-6f" x="1282.080078"/>
     <use xlink:href="#DejaVuSans-73" x="1343.261719"/>
     <use xlink:href="#DejaVuSans-20" x="1395.361328"/>
     <use xlink:href="#DejaVuSans-61" x="1427.148438"/>
     <use xlink:href="#DejaVuSans-6a" x="1488.427734"/>
     <use xlink:href="#DejaVuSans-75" x="1516.210938"/>
     <use xlink:href="#DejaVuSans-73" x="1579.589844"/>
     <use xlink:href="#DejaVuSans-74" x="1631.689453"/>
     <use xlink:href="#DejaVuSans-65" x="1670.898438"/>
     <use xlink:href="#DejaVuSans-73" x="1732.421875"/>
    </g>
    <!-- nos hiperparâmetros -->
    <g style="fill: #808080" transform="translate(679.403554 132.307529) scale(0.08 -0.08)">
     <use xlink:href="#DejaVuSans-6e"/>
     <use xlink:href="#DejaVuSans-6f" x="63.378906"/>
     <use xlink:href="#DejaVuSans-73" x="124.560547"/>
     <use xlink:href="#DejaVuSans-20" x="176.660156"/>
     <use xlink:href="#DejaVuSans-68" x="208.447266"/>
     <use xlink:href="#DejaVuSans-69" x="271.826172"/>
     <use xlink:href="#DejaVuSans-70" x="299.609375"/>
     <use xlink:href="#DejaVuSans-65" x="363.085938"/>
     <use xlink:href="#DejaVuSans-72" x="424.609375"/>
     <use xlink:href="#DejaVuSans-70" x="465.722656"/>
     <use xlink:href="#DejaVuSans-61" x="529.199219"/>
     <use xlink:href="#DejaVuSans-72" x="590.478516"/>
     <use xlink:href="#DejaVuSans-e2" x="631.591797"/>
     <use xlink:href="#DejaVuSans-6d" x="692.871094"/>
     <use xlink:href="#DejaVuSans-65" x="790.283203"/>
     <use xlink:href="#DejaVuSans-74" x="851.806641"/>
     <use xlink:href="#DejaVuSans-72" x="891.015625"/>
     <use xlink:href="#DejaVuSans-6f" x="929.878906"/>
     <use xlink:href="#DejaVuSans-73" x="991.060547"/>
    </g>
   </g>
   <g id="text_8">
    <!-- 0.7393 -->
    <g style="fill: #ffffff" transform="translate(50.539233 189.873411) scale(0.1 -0.1)">
     <defs>
      <path id="DejaVuSans-30" d="M 2034 4250 
Q 1547 4250 1301 3770 
Q 1056 3291 1056 2328 
Q 1056 1369 1301 889 
Q 1547 409 2034 409 
Q 2525 409 2770 889 
Q 3016 1369 3016 2328 
Q 3016 3291 2770 3770 
Q 2525 4250 2034 4250 
z
M 2034 4750 
Q 2819 4750 3233 4129 
Q 3647 3509 3647 2328 
Q 3647 1150 3233 529 
Q 2819 -91 2034 -91 
Q 1250 -91 836 529 
Q 422 1150 422 2328 
Q 422 3509 836 4129 
Q 1250 4750 2034 4750 
z
" transform="scale(0.015625)"/>
      <path id="DejaVuSans-2e" d="M 684 794 
L 1344 794 
L 1344 0 
L 684 0 
L 684 794 
z
" transform="scale(0.015625)"/>
      <path id="DejaVuSans-37" d="M 525 4666 
L 3525 4666 
L 3525 4397 
L 1831 0 
L 1172 0 
L 2766 4134 
L 525 4134 
L 525 4666 
z
" transform="scale(0.015625)"/>
      <path id="DejaVuSans-33" d="M 2597 2516 
Q 3050 2419 3304 2112 
Q 3559 1806 3559 1356 
Q 3559 666 3084 287 
Q 2609 -91 1734 -91 
Q 1441 -91 1130 -33 
Q 819 25 488 141 
L 488 750 
Q 750 597 1062 519 
Q 1375 441 1716 441 
Q 2309 441 2620 675 
Q 2931 909 2931 1356 
Q 2931 1769 2642 2001 
Q 2353 2234 1838 2234 
L 1294 2234 
L 1294 2753 
L 1863 2753 
Q 2328 2753 2575 2939 
Q 2822 3125 2822 3475 
Q 2822 3834 2567 4026 
Q 2313 4219 1838 4219 
Q 1578 4219 1281 4162 
Q 984 4106 628 3988 
L 628 4550 
Q 988 4650 1302 4700 
Q 1616 4750 1894 4750 
Q 2613 4750 3031 4423 
Q 3450 4097 3450 3541 
Q 3450 3153 3228 2886 
Q 3006 2619 2597 2516 
z
" transform="scale(0.015625)"/>
      <path id="DejaVuSans-39" d="M 703 97 
L 703 672 
Q 941 559 1184 500 
Q 1428 441 1663 441 
Q 2288 441 2617 861 
Q 2947 1281 2994 2138 
Q 2813 1869 2534 1725 
Q 2256 1581 1919 1581 
Q 1219 1581 811 2004 
Q 403 2428 403 3163 
Q 403 3881 828 4315 
Q 1253 4750 1959 4750 
Q 2769 4750 3195 4129 
Q 3622 3509 3622 2328 
Q 3622 1225 3098 567 
Q 2575 -91 1691 -91 
Q 1453 -91 1209 -44 
Q 966 3 703 97 
z
M 1959 2075 
Q 2384 2075 2632 2365 
Q 2881 2656 2881 3163 
Q 2881 3666 2632 3958 
Q 2384 4250 1959 4250 
Q 1534 4250 1286 3958 
Q 1038 3666 1038 3163 
Q 1038 2656 1286 2365 
Q 1534 2075 1959 2075 
z
" transform="scale(0.015625)"/>
     </defs>
     <use xlink:href="#DejaVuSans-30"/>
     <use xlink:href="#DejaVuSans-2e" x="63.623047"/>
     <use xlink:href="#DejaVuSans-37" x="95.410156"/>
     <use xlink:href="#DejaVuSans-33" x="159.033203"/>
     <use xlink:href="#DejaVuSans-39" x="222.65625"/>
     <use xlink:href="#DejaVuSans-33" x="286.279297"/>
    </g>
   </g>
   <g id="text_9">
    <!-- 0.9133 -->
    <g style="fill: #ffffff" transform="translate(180.617745 151.740477) scale(0.1 -0.1)">
     <defs>
      <path id="DejaVuSans-31" d="M 794 531 
L 1825 531 
L 1825 4091 
L 703 3866 
L 703 4441 
L 1819 4666 
L 2450 4666 
L 2450 531 
L 3481 531 
L 3481 0 
L 794 0 
L 794 531 
z
" transform="scale(0.015625)"/>
     </defs>
     <use xlink:href="#DejaVuSans-30"/>
     <use xlink:href="#DejaVuSans-2e" x="63.623047"/>
     <use xlink:href="#DejaVuSans-39" x="95.410156"/>
     <use xlink:href="#DejaVuSans-31" x="159.033203"/>
     <use xlink:href="#DejaVuSans-33" x="222.65625"/>
     <use xlink:href="#DejaVuSans-33" x="286.279297"/>
    </g>
   </g>
   <g id="text_10">
    <!-- 0.8859 -->
    <g style="fill: #ffffff" transform="translate(310.696258 157.749472) scale(0.1 -0.1)">
     <defs>
      <path id="DejaVuSans-38" d="M 2034 2216 
Q 1584 2216 1326 1975 
Q 1069 1734 1069 1313 
Q 1069 891 1326 650 
Q 1584 409 2034 409 
Q 2484 409 2743 651 
Q 3003 894 3003 1313 
Q 3003 1734 2745 1975 
Q 2488 2216 2034 2216 
z
M 1403 2484 
Q 997 2584 770 2862 
Q 544 3141 544 3541 
Q 544 4100 942 4425 
Q 1341 4750 2034 4750 
Q 2731 4750 3128 4425 
Q 3525 4100 3525 3541 
Q 3525 3141 3298 2862 
Q 3072 2584 2669 2484 
Q 3125 2378 3379 2068 
Q 3634 1759 3634 1313 
Q 3634 634 3220 271 
Q 2806 -91 2034 -91 
Q 1263 -91 848 271 
Q 434 634 434 1313 
Q 434 1759 690 2068 
Q 947 2378 1403 2484 
z
M 1172 3481 
Q 1172 3119 1398 2916 
Q 1625 2713 2034 2713 
Q 2441 2713 2670 2916 
Q 2900 3119 2900 3481 
Q 2900 3844 2670 4047 
Q 2441 4250 2034 4250 
Q 1625 4250 1398 4047 
Q 1172 3844 1172 3481 
z
" transform="scale(0.015625)"/>
      <path id="DejaVuSans-35" d="M 691 4666 
L 3169 4666 
L 3169 4134 
L 1269 4134 
L 1269 2991 
Q 1406 3038 1543 3061 
Q 1681 3084 1819 3084 
Q 2600 3084 3056 2656 
Q 3513 2228 3513 1497 
Q 3513 744 3044 326 
Q 2575 -91 1722 -91 
Q 1428 -91 1123 -41 
Q 819 9 494 109 
L 494 744 
Q 775 591 1075 516 
Q 1375 441 1709 441 
Q 2250 441 2565 725 
Q 2881 1009 2881 1497 
Q 2881 1984 2565 2268 
Q 2250 2553 1709 2553 
Q 1456 2553 1204 2497 
Q 953 2441 691 2322 
L 691 4666 
z
" transform="scale(0.015625)"/>
     </defs>
     <use xlink:href="#DejaVuSans-30"/>
     <use xlink:href="#DejaVuSans-2e" x="63.623047"/>
     <use xlink:href="#DejaVuSans-38" x="95.410156"/>
     <use xlink:href="#DejaVuSans-38" x="159.033203"/>
     <use xlink:href="#DejaVuSans-35" x="222.65625"/>
     <use xlink:href="#DejaVuSans-39" x="286.279297"/>
    </g>
   </g>
   <g id="text_11">
    <!-- 0.7336 -->
    <g style="fill: #ffffff" transform="translate(440.77477 191.119859) scale(0.1 -0.1)">
     <defs>
      <path id="DejaVuSans-36" d="M 2113 2584 
Q 1688 2584 1439 2293 
Q 1191 2003 1191 1497 
Q 1191 994 1439 701 
Q 1688 409 2113 409 
Q 2538 409 2786 701 
Q 3034 994 3034 1497 
Q 3034 2003 2786 2293 
Q 2538 2584 2113 2584 
z
M 3366 4563 
L 3366 3988 
Q 3128 4100 2886 4159 
Q 2644 4219 2406 4219 
Q 1781 4219 1451 3797 
Q 1122 3375 1075 2522 
Q 1259 2794 1537 2939 
Q 1816 3084 2150 3084 
Q 2853 3084 3261 2657 
Q 3669 2231 3669 1497 
Q 3669 778 3244 343 
Q 2819 -91 2113 -91 
Q 1303 -91 875 529 
Q 447 1150 447 2328 
Q 447 3434 972 4092 
Q 1497 4750 2381 4750 
Q 2619 4750 2861 4703 
Q 3103 4656 3366 4563 
z
" transform="scale(0.015625)"/>
     </defs>
     <use xlink:href="#DejaVuSans-30"/>
     <use xlink:href="#DejaVuSans-2e" x="63.623047"/>
     <use xlink:href="#DejaVuSans-37" x="95.410156"/>
     <use xlink:href="#DejaVuSans-33" x="159.033203"/>
     <use xlink:href="#DejaVuSans-33" x="222.65625"/>
     <use xlink:href="#DejaVuSans-36" x="286.279297"/>
    </g>
   </g>
   <g id="text_12">
    <!-- 0.9340 -->
    <g style="fill: #ffffff" transform="translate(570.853283 147.215127) scale(0.1 -0.1)">
     <defs>
      <path id="DejaVuSans-34" d="M 2419 4116 
L 825 1625 
L 2419 1625 
L 2419 4116 
z
M 2253 4666 
L 3047 4666 
L 3047 1625 
L 3713 1625 
L 3713 1100 
L 3047 1100 
L 3047 0 
L 2419 0 
L 2419 1100 
L 313 1100 
L 313 1709 
L 2253 4666 
z
" transform="scale(0.015625)"/>
     </defs>
     <use xlink:href="#DejaVuSans-30"/>
     <use xlink:href="#DejaVuSans-2e" x="63.623047"/>
     <use xlink:href="#DejaVuSans-39" x="95.410156"/>
     <use xlink:href="#DejaVuSans-33" x="159.033203"/>
     <use xlink:href="#DejaVuSans-34" x="222.65625"/>
     <use xlink:href="#DejaVuSans-30" x="286.279297"/>
    </g>
   </g>
   <g id="text_13">
    <!-- 0.8617 -->
    <g style="fill: #ffffff" transform="translate(102.570638 163.051428) scale(0.1 -0.1)">
     <use xlink:href="#DejaVuSans-30"/>
     <use xlink:href="#DejaVuSans-2e" x="63.623047"/>
     <use xlink:href="#DejaVuSans-38" x="95.410156"/>
     <use xlink:href="#DejaVuSans-36" x="159.033203"/>
     <use xlink:href="#DejaVuSans-31" x="222.65625"/>
     <use xlink:href="#DejaVuSans-37" x="286.279297"/>
    </g>
   </g>
   <g id="text_14">
    <!-- 0.9503 -->
    <g style="fill: #ffffff" transform="translate(232.64915 143.636065) scale(0.1 -0.1)">
     <use xlink:href="#DejaVuSans-30"/>
     <use xlink:href="#DejaVuSans-2e" x="63.623047"/>
     <use xlink:href="#DejaVuSans-39" x="95.410156"/>
     <use xlink:href="#DejaVuSans-35" x="159.033203"/>
     <use xlink:href="#DejaVuSans-30" x="222.65625"/>
     <use xlink:href="#DejaVuSans-33" x="286.279297"/>
    </g>
   </g>
   <g id="text_15">
    <!-- 0.9264 -->
    <g style="fill: #ffffff" transform="translate(362.727663 148.873503) scale(0.1 -0.1)">
     <defs>
      <path id="DejaVuSans-32" d="M 1228 531 
L 3431 531 
L 3431 0 
L 469 0 
L 469 531 
Q 828 903 1448 1529 
Q 2069 2156 2228 2338 
Q 2531 2678 2651 2914 
Q 2772 3150 2772 3378 
Q 2772 3750 2511 3984 
Q 2250 4219 1831 4219 
Q 1534 4219 1204 4116 
Q 875 4013 500 3803 
L 500 4441 
Q 881 4594 1212 4672 
Q 1544 4750 1819 4750 
Q 2544 4750 2975 4387 
Q 3406 4025 3406 3419 
Q 3406 3131 3298 2873 
Q 3191 2616 2906 2266 
Q 2828 2175 2409 1742 
Q 1991 1309 1228 531 
z
" transform="scale(0.015625)"/>
     </defs>
     <use xlink:href="#DejaVuSans-30"/>
     <use xlink:href="#DejaVuSans-2e" x="63.623047"/>
     <use xlink:href="#DejaVuSans-39" x="95.410156"/>
     <use xlink:href="#DejaVuSans-32" x="159.033203"/>
     <use xlink:href="#DejaVuSans-36" x="222.65625"/>
     <use xlink:href="#DejaVuSans-34" x="286.279297"/>
    </g>
   </g>
   <g id="text_16">
    <!-- 0.7360 -->
    <g style="fill: #ffffff" transform="translate(492.806175 190.591114) scale(0.1 -0.1)">
     <use xlink:href="#DejaVuSans-30"/>
     <use xlink:href="#DejaVuSans-2e" x="63.623047"/>
     <use xlink:href="#DejaVuSans-37" x="95.410156"/>
     <use xlink:href="#DejaVuSans-33" x="159.033203"/>
     <use xlink:href="#DejaVuSans-36" x="222.65625"/>
     <use xlink:href="#DejaVuSans-30" x="286.279297"/>
    </g>
   </g>
   <g id="text_17">
    <!-- 0.9590 -->
    <g style="fill: #ffffff" transform="translate(622.884688 141.737902) scale(0.1 -0.1)">
     <use xlink:href="#DejaVuSans-30"/>
     <use xlink:href="#DejaVuSans-2e" x="63.623047"/>
     <use xlink:href="#DejaVuSans-39" x="95.410156"/>
     <use xlink:href="#DejaVuSans-35" x="159.033203"/>
     <use xlink:href="#DejaVuSans-39" x="222.65625"/>
     <use xlink:href="#DejaVuSans-30" x="286.279297"/>
    </g>
   </g>
   <g id="legend_1">
    <g id="patch_13">
     <path d="M 17.8 129.208003 
L 84.107813 129.208003 
Q 86.107813 129.208003 86.107813 127.208003 
L 86.107813 84.173628 
Q 86.107813 82.173628 84.107813 82.173628 
L 17.8 82.173628 
Q 15.8 82.173628 15.8 84.173628 
L 15.8 127.208003 
Q 15.8 129.208003 17.8 129.208003 
z
" style="fill: #ffffff; opacity: 0.8; stroke: #cccccc; stroke-linejoin: miter"/>
    </g>
    <g id="text_18">
     <!-- Acurácia -->
     <g transform="translate(29.38125 93.772066) scale(0.1 -0.1)">
      <defs>
       <path id="DejaVuSans-41" d="M 2188 4044 
L 1331 1722 
L 3047 1722 
L 2188 4044 
z
M 1831 4666 
L 2547 4666 
L 4325 0 
L 3669 0 
L 3244 1197 
L 1141 1197 
L 716 0 
L 50 0 
L 1831 4666 
z
" transform="scale(0.015625)"/>
      </defs>
      <use xlink:href="#DejaVuSans-41"/>
      <use xlink:href="#DejaVuSans-63" x="66.658203"/>
      <use xlink:href="#DejaVuSans-75" x="121.638672"/>
      <use xlink:href="#DejaVuSans-72" x="185.017578"/>
      <use xlink:href="#DejaVuSans-e1" x="226.130859"/>
      <use xlink:href="#DejaVuSans-63" x="287.410156"/>
      <use xlink:href="#DejaVuSans-69" x="342.390625"/>
      <use xlink:href="#DejaVuSans-61" x="370.173828"/>
     </g>
    </g>
    <g id="patch_14">
     <path d="M 19.8 108.450191 
L 39.8 108.450191 
L 39.8 101.450191 
L 19.8 101.450191 
z
" style="fill: #87ceeb"/>
    </g>
    <g id="text_19">
     <!-- Antes -->
     <g transform="translate(47.8 108.450191) scale(0.1 -0.1)">
      <use xlink:href="#DejaVuSans-41"/>
      <use xlink:href="#DejaVuSans-6e" x="68.408203"/>
      <use xlink:href="#DejaVuSans-74" x="131.787109"/>
      <use xlink:href="#DejaVuSans-65" x="170.996094"/>
      <use xlink:href="#DejaVuSans-73" x="232.519531"/>
     </g>
    </g>
    <g id="patch_15">
     <path d="M 19.8 123.128316 
L 39.8 123.128316 
L 39.8 116.128316 
L 19.8 116.128316 
z
" style="fill: #ff0000"/>
    </g>
    <g id="text_20">
     <!-- Depois -->
     <g transform="translate(47.8 123.128316) scale(0.1 -0.1)">
      <use xlink:href="#DejaVuSans-44"/>
      <use xlink:href="#DejaVuSans-65" x="77.001953"/>
      <use xlink:href="#DejaVuSans-70" x="138.525391"/>
      <use xlink:href="#DejaVuSans-6f" x="202.001953"/>
      <use xlink:href="#DejaVuSans-69" x="263.183594"/>
      <use xlink:href="#DejaVuSans-73" x="290.966797"/>
     </g>
    </g>
   </g>
  </g>
 </g>
 <defs>
  <clipPath id="pa0bbeeee25">
   <rect x="10.8" y="121.309135" width="686.814545" height="220.677537"/>
  </clipPath>
 </defs>
</svg>
